# MagicaVoxel @ Ephtracy

# group
o 

# material
mtllib Car.mtl
usemtl palette

# normals
vn -1 0 0
vn 1 0 0
vn 0 0 1
vn 0 0 -1
vn 0 -1 0
vn 0 1 0

# texcoords
vt 0.615234 0.5
vt 0.841797 0.5

# verts
v -0.9 1.5 0.2
v -0.9 1.5 -0.2
v -0.9 1.6 0.2
v -0.9 1.6 -0.2
v -0.8 1.5 0.4
v -0.8 1.5 0.2
v -0.8 1.5 -0.2
v -0.8 1.5 -0.4
v -0.8 1.6 0.4
v -0.8 1.6 0.2
v -0.8 1.6 -0.2
v -0.8 1.6 -0.4
v -0.8 1.7 0.2
v -0.8 1.7 -0.2
v -0.7 1.5 0.6
v -0.7 1.5 0.4
v -0.7 1.5 -0.4
v -0.7 1.5 -0.6
v -0.7 1.6 0.6
v -0.7 1.6 0.4
v -0.7 1.6 0.2
v -0.7 1.6 -0.2
v -0.7 1.6 -0.4
v -0.7 1.6 -0.6
v -0.7 1.7 0.4
v -0.7 1.7 0.2
v -0.7 1.7 0.1
v -0.7 1.7 -0.1
v -0.7 1.7 -0.2
v -0.7 1.7 -0.4
v -0.7 1.8 0.1
v -0.7 1.8 -0.1
v -0.6 1.6 0.5
v -0.6 1.6 0.4
v -0.6 1.6 -0.4
v -0.6 1.6 -0.5
v -0.6 1.7 0.5
v -0.6 1.7 0.4
v -0.6 1.7 -0.4
v -0.6 1.7 -0.5
v -0.5 1.5 0.2
v -0.5 1.5 0.1
v -0.5 1.5 -0.1
v -0.5 1.5 -0.2
v -0.5 1.6 0.2
v -0.5 1.6 0.1
v -0.5 1.6 -0.1
v -0.5 1.6 -0.2
v -0.4 1.5 0.3
v -0.4 1.5 0.2
v -0.4 1.5 -0.2
v -0.4 1.5 -0.3
v -0.4 1.6 0.3
v -0.4 1.6 0.2
v -0.4 1.6 0.1
v -0.4 1.6 -0.1
v -0.4 1.6 -0.2
v -0.4 1.6 -0.3
v -0.4 1.7 0.2
v -0.4 1.7 0.1
v -0.4 1.7 -0.1
v -0.4 1.7 -0.2
v -0.4 1.8 0.1
v -0.4 1.8 -0.1
v -0.3 1.4 0.4
v -0.3 1.4 0.3
v -0.3 1.4 -0.3
v -0.3 1.4 -0.4
v -0.3 1.5 0.3
v -0.3 1.5 -0.3
v -0.3 1.6 0.4
v -0.3 1.6 0.3
v -0.3 1.6 0.2
v -0.3 1.6 -0.2
v -0.3 1.6 -0.3
v -0.3 1.6 -0.4
v -0.3 1.7 0.3
v -0.3 1.7 0.2
v -0.3 1.7 0.1
v -0.3 1.7 -0.1
v -0.3 1.7 -0.2
v -0.3 1.7 -0.3
v -0.3 1.8 0.2
v -0.3 1.8 0.1
v -0.3 1.8 -0.1
v -0.3 1.8 -0.2
v -0.2 1.6 0.4
v -0.2 1.6 0.3
v -0.2 1.6 -0.3
v -0.2 1.6 -0.4
v -0.2 1.7 0.4
v -0.2 1.7 0.3
v -0.2 1.7 0.2
v -0.2 1.7 -0.2
v -0.2 1.7 -0.3
v -0.2 1.7 -0.4
v -0.2 1.8 0.3
v -0.2 1.8 0.2
v -0.2 1.8 0.1
v -0.2 1.8 -0.1
v -0.2 1.8 -0.2
v -0.2 1.8 -0.3
v -0.2 1.9 0.1
v -0.2 1.9 -0.1
v -0.1 1.8 0.2
v -0.1 1.8 0.1
v -0.1 1.8 -0.1
v -0.1 1.8 -0.2
v -0.1 1.9 0.2
v -0.1 1.9 0.1
v -0.1 1.9 -0.1
v -0.1 1.9 -0.2
v 0 1.9 0.1
v 0 1.9 -0.1
v 0 2 0.1
v 0 2 -0.1
v 0.3 1.4 0.4
v 0.3 1.4 0.3
v 0.3 1.4 -0.3
v 0.3 1.4 -0.4
v 0.3 1.5 0.4
v 0.3 1.5 0.3
v 0.3 1.5 -0.3
v 0.3 1.5 -0.4
v 0.6 1.8 0.1
v 0.6 1.8 -0.1
v 0.6 1.9 0.1
v 0.6 1.9 -0.1
v 0.7 1.8 0.4
v 0.7 1.8 0.1
v 0.7 1.8 -0.1
v 0.7 1.8 -0.4
v 0.7 1.9 0.4
v 0.7 1.9 0.1
v 0.7 1.9 -0.1
v 0.7 1.9 -0.4
v 0.8 1.8 0.5
v 0.8 1.8 0.4
v 0.8 1.8 -0.4
v 0.8 1.8 -0.5
v 0.8 1.9 0.5
v 0.8 1.9 0.4
v 0.8 1.9 -0.4
v 0.8 1.9 -0.5
v 0.8 2 0.4
v 0.8 2 -0.4
v -0.6 1.5 0.4
v -0.6 1.5 0.1
v -0.6 1.5 -0.1
v -0.6 1.5 -0.4
v -0.6 1.7 0.4
v -0.6 1.7 0.1
v -0.6 1.7 -0.1
v -0.6 1.7 -0.4
v -0.6 1.8 0.1
v -0.6 1.8 -0.1
v -0.5 1.5 0.6
v -0.5 1.5 0.4
v -0.5 1.5 -0.4
v -0.5 1.5 -0.6
v -0.5 1.6 0.6
v -0.5 1.6 0.5
v -0.5 1.6 -0.5
v -0.5 1.6 -0.6
v -0.5 1.7 0.5
v -0.5 1.7 0.4
v -0.5 1.7 -0.4
v -0.5 1.7 -0.5
v -0.1 1.4 0.4
v -0.1 1.4 0.3
v -0.1 1.4 -0.3
v -0.1 1.4 -0.4
v -0.1 1.5 0.4
v -0.1 1.5 0.3
v -0.1 1.5 -0.3
v -0.1 1.5 -0.4
v 0.4 1.6 0.4
v 0.4 1.6 0.3
v 0.4 1.6 -0.3
v 0.4 1.6 -0.4
v 0.4 1.7 0.4
v 0.4 1.7 0.3
v 0.4 1.7 0.2
v 0.4 1.7 -0.2
v 0.4 1.7 -0.3
v 0.4 1.7 -0.4
v 0.4 1.8 0.3
v 0.4 1.8 0.2
v 0.4 1.8 0.1
v 0.4 1.8 -0.1
v 0.4 1.8 -0.2
v 0.4 1.8 -0.3
v 0.4 1.9 0.2
v 0.4 1.9 0.1
v 0.4 1.9 -0.1
v 0.4 1.9 -0.2
v 0.4 2 0.1
v 0.4 2 -0.1
v 0.5 1.4 0.4
v 0.5 1.4 0.3
v 0.5 1.4 -0.3
v 0.5 1.4 -0.4
v 0.5 1.5 0.3
v 0.5 1.5 -0.3
v 0.5 1.6 0.4
v 0.5 1.6 0.3
v 0.5 1.6 0.2
v 0.5 1.6 -0.2
v 0.5 1.6 -0.3
v 0.5 1.6 -0.4
v 0.5 1.7 0.3
v 0.5 1.7 0.2
v 0.5 1.7 0.1
v 0.5 1.7 -0.1
v 0.5 1.7 -0.2
v 0.5 1.7 -0.3
v 0.5 1.8 0.2
v 0.5 1.8 0.1
v 0.5 1.8 -0.1
v 0.5 1.8 -0.2
v 0.5 1.9 0.1
v 0.5 1.9 -0.1
v 0.6 1.5 0.3
v 0.6 1.5 -0.3
v 0.6 1.6 0.3
v 0.6 1.6 0.2
v 0.6 1.6 0.1
v 0.6 1.6 -0.1
v 0.6 1.6 -0.2
v 0.6 1.6 -0.3
v 0.6 1.7 0.2
v 0.6 1.7 0.1
v 0.6 1.7 -0.1
v 0.6 1.7 -0.2
v 0.7 1.6 0.1
v 0.7 1.6 -0.1
v 0.7 1.7 0.1
v 0.7 1.7 -0.1
v 0.8 1.7 0.1
v 0.8 1.7 -0.1
v 0.8 1.8 0.1
v 0.8 1.8 -0.1
v 0.9 1.8 0.5
v 0.9 1.8 0.4
v 0.9 1.8 -0.4
v 0.9 1.8 -0.5
v 0.9 1.9 0.5
v 0.9 1.9 0.4
v 0.9 1.9 -0.4
v 0.9 1.9 -0.5
v 0.9 2 0.4
v 0.9 2 -0.4
v 1 1.8 0.4
v 1 1.8 -0.4
v 1 1.9 0.4
v 1 1.9 -0.4
v -0.7 1.5 0.6
v -0.7 1.6 0.6
v -0.5 1.5 0.6
v -0.5 1.6 0.6
v -0.6 1.6 0.5
v -0.6 1.7 0.5
v -0.5 1.6 0.5
v -0.5 1.7 0.5
v 0.8 1.8 0.5
v 0.8 1.9 0.5
v 0.9 1.8 0.5
v 0.9 1.9 0.5
v -0.8 1.5 0.4
v -0.8 1.6 0.4
v -0.7 1.5 0.4
v -0.7 1.6 0.4
v -0.7 1.7 0.4
v -0.6 1.6 0.4
v -0.6 1.7 0.4
v -0.3 1.4 0.4
v -0.3 1.6 0.4
v -0.2 1.6 0.4
v -0.2 1.7 0.4
v -0.1 1.4 0.4
v -0.1 1.5 0.4
v 0.3 1.4 0.4
v 0.3 1.5 0.4
v 0.4 1.6 0.4
v 0.4 1.7 0.4
v 0.5 1.4 0.4
v 0.5 1.6 0.4
v 0.7 1.8 0.4
v 0.7 1.9 0.4
v 0.8 1.8 0.4
v 0.8 1.9 0.4
v 0.8 2 0.4
v 0.9 1.8 0.4
v 0.9 1.9 0.4
v 0.9 2 0.4
v 1 1.8 0.4
v 1 1.9 0.4
v -0.4 1.5 0.3
v -0.4 1.6 0.3
v -0.3 1.5 0.3
v -0.3 1.6 0.3
v -0.3 1.7 0.3
v -0.2 1.6 0.3
v -0.2 1.7 0.3
v -0.2 1.8 0.3
v 0.4 1.6 0.3
v 0.4 1.7 0.3
v 0.4 1.8 0.3
v 0.5 1.5 0.3
v 0.5 1.6 0.3
v 0.5 1.7 0.3
v 0.6 1.5 0.3
v 0.6 1.6 0.3
v -0.9 1.5 0.2
v -0.9 1.6 0.2
v -0.8 1.5 0.2
v -0.8 1.6 0.2
v -0.8 1.7 0.2
v -0.7 1.6 0.2
v -0.7 1.7 0.2
v -0.5 1.5 0.2
v -0.5 1.6 0.2
v -0.4 1.5 0.2
v -0.4 1.6 0.2
v -0.4 1.7 0.2
v -0.3 1.6 0.2
v -0.3 1.7 0.2
v -0.3 1.8 0.2
v -0.2 1.7 0.2
v -0.2 1.8 0.2
v -0.1 1.8 0.2
v -0.1 1.9 0.2
v 0.4 1.7 0.2
v 0.4 1.8 0.2
v 0.4 1.9 0.2
v 0.5 1.6 0.2
v 0.5 1.7 0.2
v 0.5 1.8 0.2
v 0.6 1.6 0.2
v 0.6 1.7 0.2
v -0.7 1.7 0.1
v -0.7 1.8 0.1
v -0.6 1.5 0.1
v -0.6 1.7 0.1
v -0.6 1.8 0.1
v -0.5 1.5 0.1
v -0.5 1.6 0.1
v -0.5 1.7 0.1
v -0.4 1.6 0.1
v -0.4 1.7 0.1
v -0.4 1.8 0.1
v -0.3 1.7 0.1
v -0.3 1.8 0.1
v -0.2 1.8 0.1
v -0.2 1.9 0.1
v -0.1 1.8 0.1
v -0.1 1.9 0.1
v 0 1.9 0.1
v 0 2 0.1
v 0.4 1.8 0.1
v 0.4 1.9 0.1
v 0.4 2 0.1
v 0.5 1.7 0.1
v 0.5 1.8 0.1
v 0.5 1.9 0.1
v 0.6 1.6 0.1
v 0.6 1.7 0.1
v 0.6 1.8 0.1
v 0.6 1.9 0.1
v 0.7 1.6 0.1
v 0.7 1.7 0.1
v 0.7 1.8 0.1
v 0.7 1.9 0.1
v 0.8 1.7 0.1
v 0.8 1.8 0.1
v -0.3 1.4 -0.3
v -0.3 1.5 -0.3
v -0.1 1.4 -0.3
v -0.1 1.5 -0.3
v 0.3 1.4 -0.3
v 0.3 1.5 -0.3
v 0.5 1.4 -0.3
v 0.5 1.5 -0.3
v -0.6 1.5 -0.4
v -0.6 1.7 -0.4
v -0.5 1.5 -0.4
v -0.5 1.7 -0.4
v -0.6 1.5 0.4
v -0.6 1.7 0.4
v -0.5 1.5 0.4
v -0.5 1.7 0.4
v -0.3 1.4 0.3
v -0.3 1.5 0.3
v -0.1 1.4 0.3
v -0.1 1.5 0.3
v 0.3 1.4 0.3
v 0.3 1.5 0.3
v 0.5 1.4 0.3
v 0.5 1.5 0.3
v -0.7 1.7 -0.1
v -0.7 1.8 -0.1
v -0.6 1.5 -0.1
v -0.6 1.7 -0.1
v -0.6 1.8 -0.1
v -0.5 1.5 -0.1
v -0.5 1.6 -0.1
v -0.5 1.7 -0.1
v -0.4 1.6 -0.1
v -0.4 1.7 -0.1
v -0.4 1.8 -0.1
v -0.3 1.7 -0.1
v -0.3 1.8 -0.1
v -0.2 1.8 -0.1
v -0.2 1.9 -0.1
v -0.1 1.8 -0.1
v -0.1 1.9 -0.1
v 0 1.9 -0.1
v 0 2 -0.1
v 0.4 1.8 -0.1
v 0.4 1.9 -0.1
v 0.4 2 -0.1
v 0.5 1.7 -0.1
v 0.5 1.8 -0.1
v 0.5 1.9 -0.1
v 0.6 1.6 -0.1
v 0.6 1.7 -0.1
v 0.6 1.8 -0.1
v 0.6 1.9 -0.1
v 0.7 1.6 -0.1
v 0.7 1.7 -0.1
v 0.7 1.8 -0.1
v 0.7 1.9 -0.1
v 0.8 1.7 -0.1
v 0.8 1.8 -0.1
v -0.9 1.5 -0.2
v -0.9 1.6 -0.2
v -0.8 1.5 -0.2
v -0.8 1.6 -0.2
v -0.8 1.7 -0.2
v -0.7 1.6 -0.2
v -0.7 1.7 -0.2
v -0.5 1.5 -0.2
v -0.5 1.6 -0.2
v -0.4 1.5 -0.2
v -0.4 1.6 -0.2
v -0.4 1.7 -0.2
v -0.3 1.6 -0.2
v -0.3 1.7 -0.2
v -0.3 1.8 -0.2
v -0.2 1.7 -0.2
v -0.2 1.8 -0.2
v -0.1 1.8 -0.2
v -0.1 1.9 -0.2
v 0.4 1.7 -0.2
v 0.4 1.8 -0.2
v 0.4 1.9 -0.2
v 0.5 1.6 -0.2
v 0.5 1.7 -0.2
v 0.5 1.8 -0.2
v 0.6 1.6 -0.2
v 0.6 1.7 -0.2
v -0.4 1.5 -0.3
v -0.4 1.6 -0.3
v -0.3 1.5 -0.3
v -0.3 1.6 -0.3
v -0.3 1.7 -0.3
v -0.2 1.6 -0.3
v -0.2 1.7 -0.3
v -0.2 1.8 -0.3
v 0.4 1.6 -0.3
v 0.4 1.7 -0.3
v 0.4 1.8 -0.3
v 0.5 1.5 -0.3
v 0.5 1.6 -0.3
v 0.5 1.7 -0.3
v 0.6 1.5 -0.3
v 0.6 1.6 -0.3
v -0.8 1.5 -0.4
v -0.8 1.6 -0.4
v -0.7 1.5 -0.4
v -0.7 1.6 -0.4
v -0.7 1.7 -0.4
v -0.6 1.6 -0.4
v -0.6 1.7 -0.4
v -0.3 1.4 -0.4
v -0.3 1.6 -0.4
v -0.2 1.6 -0.4
v -0.2 1.7 -0.4
v -0.1 1.4 -0.4
v -0.1 1.5 -0.4
v 0.3 1.4 -0.4
v 0.3 1.5 -0.4
v 0.4 1.6 -0.4
v 0.4 1.7 -0.4
v 0.5 1.4 -0.4
v 0.5 1.6 -0.4
v 0.7 1.8 -0.4
v 0.7 1.9 -0.4
v 0.8 1.8 -0.4
v 0.8 1.9 -0.4
v 0.8 2 -0.4
v 0.9 1.8 -0.4
v 0.9 1.9 -0.4
v 0.9 2 -0.4
v 1 1.8 -0.4
v 1 1.9 -0.4
v -0.6 1.6 -0.5
v -0.6 1.7 -0.5
v -0.5 1.6 -0.5
v -0.5 1.7 -0.5
v 0.8 1.8 -0.5
v 0.8 1.9 -0.5
v 0.9 1.8 -0.5
v 0.9 1.9 -0.5
v -0.7 1.5 -0.6
v -0.7 1.6 -0.6
v -0.5 1.5 -0.6
v -0.5 1.6 -0.6
v -0.3 1.4 0.4
v -0.1 1.4 0.4
v 0.3 1.4 0.4
v 0.5 1.4 0.4
v -0.3 1.4 0.3
v -0.1 1.4 0.3
v 0.3 1.4 0.3
v 0.5 1.4 0.3
v -0.3 1.4 -0.3
v -0.1 1.4 -0.3
v 0.3 1.4 -0.3
v 0.5 1.4 -0.3
v -0.3 1.4 -0.4
v -0.1 1.4 -0.4
v 0.3 1.4 -0.4
v 0.5 1.4 -0.4
v -0.7 1.5 0.6
v -0.5 1.5 0.6
v -0.8 1.5 0.4
v -0.7 1.5 0.4
v -0.6 1.5 0.4
v -0.5 1.5 0.4
v -0.1 1.5 0.4
v 0.3 1.5 0.4
v -0.4 1.5 0.3
v -0.3 1.5 0.3
v -0.1 1.5 0.3
v 0.3 1.5 0.3
v 0.5 1.5 0.3
v 0.6 1.5 0.3
v -0.9 1.5 0.2
v -0.8 1.5 0.2
v -0.5 1.5 0.2
v -0.4 1.5 0.2
v -0.6 1.5 0.1
v -0.5 1.5 0.1
v -0.6 1.5 -0.1
v -0.5 1.5 -0.1
v -0.9 1.5 -0.2
v -0.8 1.5 -0.2
v -0.5 1.5 -0.2
v -0.4 1.5 -0.2
v -0.4 1.5 -0.3
v -0.3 1.5 -0.3
v -0.1 1.5 -0.3
v 0.3 1.5 -0.3
v 0.5 1.5 -0.3
v 0.6 1.5 -0.3
v -0.8 1.5 -0.4
v -0.7 1.5 -0.4
v -0.6 1.5 -0.4
v -0.5 1.5 -0.4
v -0.1 1.5 -0.4
v 0.3 1.5 -0.4
v -0.7 1.5 -0.6
v -0.5 1.5 -0.6
v 0.6 1.6 0.1
v 0.7 1.6 0.1
v 0.6 1.6 -0.1
v 0.7 1.6 -0.1
v 0.7 1.7 0.1
v 0.8 1.7 0.1
v 0.7 1.7 -0.1
v 0.8 1.7 -0.1
v 0.8 1.8 0.5
v 0.9 1.8 0.5
v 0.7 1.8 0.4
v 0.8 1.8 0.4
v 0.9 1.8 0.4
v 1 1.8 0.4
v 0.7 1.8 0.1
v 0.8 1.8 0.1
v 0.7 1.8 -0.1
v 0.8 1.8 -0.1
v 0.7 1.8 -0.4
v 0.8 1.8 -0.4
v 0.9 1.8 -0.4
v 1 1.8 -0.4
v 0.8 1.8 -0.5
v 0.9 1.8 -0.5
v -0.7 1.6 0.6
v -0.5 1.6 0.6
v -0.6 1.6 0.5
v -0.5 1.6 0.5
v -0.8 1.6 0.4
v -0.7 1.6 0.4
v -0.6 1.6 0.4
v -0.3 1.6 0.4
v -0.2 1.6 0.4
v 0.4 1.6 0.4
v 0.5 1.6 0.4
v -0.4 1.6 0.3
v -0.3 1.6 0.3
v -0.2 1.6 0.3
v 0.4 1.6 0.3
v 0.5 1.6 0.3
v 0.6 1.6 0.3
v -0.9 1.6 0.2
v -0.8 1.6 0.2
v -0.7 1.6 0.2
v -0.5 1.6 0.2
v -0.4 1.6 0.2
v -0.3 1.6 0.2
v 0.5 1.6 0.2
v 0.6 1.6 0.2
v -0.5 1.6 0.1
v -0.4 1.6 0.1
v -0.5 1.6 -0.1
v -0.4 1.6 -0.1
v -0.9 1.6 -0.2
v -0.8 1.6 -0.2
v -0.7 1.6 -0.2
v -0.5 1.6 -0.2
v -0.4 1.6 -0.2
v -0.3 1.6 -0.2
v 0.5 1.6 -0.2
v 0.6 1.6 -0.2
v -0.4 1.6 -0.3
v -0.3 1.6 -0.3
v -0.2 1.6 -0.3
v 0.4 1.6 -0.3
v 0.5 1.6 -0.3
v 0.6 1.6 -0.3
v -0.8 1.6 -0.4
v -0.7 1.6 -0.4
v -0.6 1.6 -0.4
v -0.3 1.6 -0.4
v -0.2 1.6 -0.4
v 0.4 1.6 -0.4
v 0.5 1.6 -0.4
v -0.6 1.6 -0.5
v -0.5 1.6 -0.5
v -0.7 1.6 -0.6
v -0.5 1.6 -0.6
v -0.6 1.7 0.5
v -0.5 1.7 0.5
v -0.7 1.7 0.4
v -0.6 1.7 0.4
v -0.5 1.7 0.4
v -0.2 1.7 0.4
v 0.4 1.7 0.4
v -0.3 1.7 0.3
v -0.2 1.7 0.3
v 0.4 1.7 0.3
v 0.5 1.7 0.3
v -0.8 1.7 0.2
v -0.7 1.7 0.2
v -0.4 1.7 0.2
v -0.3 1.7 0.2
v -0.2 1.7 0.2
v 0.4 1.7 0.2
v 0.5 1.7 0.2
v 0.6 1.7 0.2
v -0.7 1.7 0.1
v -0.6 1.7 0.1
v -0.5 1.7 0.1
v -0.4 1.7 0.1
v -0.3 1.7 0.1
v 0.5 1.7 0.1
v 0.6 1.7 0.1
v -0.7 1.7 -0.1
v -0.6 1.7 -0.1
v -0.5 1.7 -0.1
v -0.4 1.7 -0.1
v -0.3 1.7 -0.1
v 0.5 1.7 -0.1
v 0.6 1.7 -0.1
v -0.8 1.7 -0.2
v -0.7 1.7 -0.2
v -0.4 1.7 -0.2
v -0.3 1.7 -0.2
v -0.2 1.7 -0.2
v 0.4 1.7 -0.2
v 0.5 1.7 -0.2
v 0.6 1.7 -0.2
v -0.3 1.7 -0.3
v -0.2 1.7 -0.3
v 0.4 1.7 -0.3
v 0.5 1.7 -0.3
v -0.7 1.7 -0.4
v -0.6 1.7 -0.4
v -0.5 1.7 -0.4
v -0.2 1.7 -0.4
v 0.4 1.7 -0.4
v -0.6 1.7 -0.5
v -0.5 1.7 -0.5
v -0.2 1.8 0.3
v 0.4 1.8 0.3
v -0.3 1.8 0.2
v -0.2 1.8 0.2
v -0.1 1.8 0.2
v 0.4 1.8 0.2
v 0.5 1.8 0.2
v -0.7 1.8 0.1
v -0.6 1.8 0.1
v -0.4 1.8 0.1
v -0.3 1.8 0.1
v -0.2 1.8 0.1
v -0.1 1.8 0.1
v 0.4 1.8 0.1
v 0.5 1.8 0.1
v 0.6 1.8 0.1
v -0.7 1.8 -0.1
v -0.6 1.8 -0.1
v -0.4 1.8 -0.1
v -0.3 1.8 -0.1
v -0.2 1.8 -0.1
v -0.1 1.8 -0.1
v 0.4 1.8 -0.1
v 0.5 1.8 -0.1
v 0.6 1.8 -0.1
v -0.3 1.8 -0.2
v -0.2 1.8 -0.2
v -0.1 1.8 -0.2
v 0.4 1.8 -0.2
v 0.5 1.8 -0.2
v -0.2 1.8 -0.3
v 0.4 1.8 -0.3
v 0.8 1.9 0.5
v 0.9 1.9 0.5
v 0.7 1.9 0.4
v 0.8 1.9 0.4
v 0.9 1.9 0.4
v 1 1.9 0.4
v -0.1 1.9 0.2
v 0.4 1.9 0.2
v -0.2 1.9 0.1
v -0.1 1.9 0.1
v 0 1.9 0.1
v 0.4 1.9 0.1
v 0.5 1.9 0.1
v 0.6 1.9 0.1
v 0.7 1.9 0.1
v -0.2 1.9 -0.1
v -0.1 1.9 -0.1
v 0 1.9 -0.1
v 0.4 1.9 -0.1
v 0.5 1.9 -0.1
v 0.6 1.9 -0.1
v 0.7 1.9 -0.1
v -0.1 1.9 -0.2
v 0.4 1.9 -0.2
v 0.7 1.9 -0.4
v 0.8 1.9 -0.4
v 0.9 1.9 -0.4
v 1 1.9 -0.4
v 0.8 1.9 -0.5
v 0.9 1.9 -0.5
v 0.8 2 0.4
v 0.9 2 0.4
v 0 2 0.1
v 0.4 2 0.1
v 0 2 -0.1
v 0.4 2 -0.1
v 0.8 2 -0.4
v 0.9 2 -0.4

# faces
f 3/2/1 2/2/1 1/2/1
f 4/2/1 2/2/1 3/2/1
f 9/2/1 6/2/1 5/2/1
f 10/2/1 6/2/1 9/2/1
f 11/2/1 8/2/1 7/2/1
f 12/2/1 8/2/1 11/2/1
f 13/2/1 11/2/1 10/2/1
f 14/2/1 11/2/1 13/2/1
f 19/2/1 16/2/1 15/2/1
f 20/2/1 16/2/1 19/2/1
f 23/2/1 18/2/1 17/2/1
f 24/2/1 18/2/1 23/2/1
f 25/2/1 21/2/1 20/2/1
f 26/2/1 21/2/1 25/2/1
f 29/2/1 23/2/1 22/2/1
f 30/2/1 23/2/1 29/2/1
f 31/2/1 28/2/1 27/2/1
f 32/2/1 28/2/1 31/2/1
f 37/2/1 34/2/1 33/2/1
f 38/2/1 34/2/1 37/2/1
f 39/2/1 36/2/1 35/2/1
f 40/2/1 36/2/1 39/2/1
f 45/2/1 42/2/1 41/2/1
f 46/2/1 42/2/1 45/2/1
f 47/2/1 44/2/1 43/2/1
f 48/2/1 44/2/1 47/2/1
f 53/2/1 50/2/1 49/2/1
f 54/2/1 50/2/1 53/2/1
f 57/2/1 52/2/1 51/2/1
f 58/2/1 52/2/1 57/2/1
f 59/1/1 55/1/1 54/1/1
f 60/1/1 55/1/1 59/1/1
f 61/1/1 57/1/1 56/1/1
f 62/1/1 57/1/1 61/1/1
f 63/1/1 61/1/1 60/1/1
f 64/1/1 61/1/1 63/1/1
f 69/2/1 66/2/1 65/2/1
f 70/2/1 68/2/1 67/2/1
f 71/2/1 69/2/1 65/2/1
f 72/2/1 69/2/1 71/2/1
f 75/2/1 68/2/1 70/2/1
f 76/2/1 68/2/1 75/2/1
f 77/1/1 73/1/1 72/1/1
f 78/1/1 73/1/1 77/1/1
f 81/1/1 75/1/1 74/1/1
f 82/1/1 75/1/1 81/1/1
f 83/1/1 79/1/1 78/1/1
f 84/1/1 79/1/1 83/1/1
f 85/1/1 81/1/1 80/1/1
f 86/1/1 81/1/1 85/1/1
f 91/2/1 88/2/1 87/2/1
f 92/2/1 88/2/1 91/2/1
f 95/2/1 90/2/1 89/2/1
f 96/2/1 90/2/1 95/2/1
f 97/2/1 93/2/1 92/2/1
f 98/2/1 93/2/1 97/2/1
f 101/2/1 95/2/1 94/2/1
f 102/2/1 95/2/1 101/2/1
f 103/1/1 100/1/1 99/1/1
f 104/1/1 100/1/1 103/1/1
f 109/2/1 106/2/1 105/2/1
f 110/2/1 106/2/1 109/2/1
f 111/2/1 108/2/1 107/2/1
f 112/2/1 108/2/1 111/2/1
f 115/2/1 114/2/1 113/2/1
f 116/2/1 114/2/1 115/2/1
f 121/2/1 118/2/1 117/2/1
f 122/2/1 118/2/1 121/2/1
f 123/2/1 120/2/1 119/2/1
f 124/2/1 120/2/1 123/2/1
f 127/2/1 126/2/1 125/2/1
f 128/2/1 126/2/1 127/2/1
f 133/2/1 130/2/1 129/2/1
f 134/2/1 130/2/1 133/2/1
f 135/2/1 132/2/1 131/2/1
f 136/2/1 132/2/1 135/2/1
f 141/2/1 138/2/1 137/2/1
f 142/2/1 138/2/1 141/2/1
f 143/2/1 140/2/1 139/2/1
f 144/2/1 140/2/1 143/2/1
f 145/2/1 143/2/1 142/2/1
f 146/2/1 143/2/1 145/2/1
f 147/2/2 148/2/2 151/2/2
f 151/2/2 148/2/2 152/2/2
f 149/2/2 150/2/2 153/2/2
f 153/2/2 150/2/2 154/2/2
f 152/2/2 153/2/2 155/2/2
f 155/2/2 153/2/2 156/2/2
f 157/2/2 158/2/2 161/2/2
f 161/2/2 158/2/2 162/2/2
f 159/2/2 160/2/2 163/2/2
f 163/2/2 160/2/2 164/2/2
f 162/2/2 158/2/2 165/2/2
f 165/2/2 158/2/2 166/2/2
f 159/2/2 163/2/2 167/2/2
f 167/2/2 163/2/2 168/2/2
f 169/2/2 170/2/2 173/2/2
f 173/2/2 170/2/2 174/2/2
f 171/2/2 172/2/2 175/2/2
f 175/2/2 172/2/2 176/2/2
f 177/2/2 178/2/2 181/2/2
f 181/2/2 178/2/2 182/2/2
f 179/2/2 180/2/2 185/2/2
f 185/2/2 180/2/2 186/2/2
f 182/2/2 183/2/2 187/2/2
f 187/2/2 183/2/2 188/2/2
f 184/2/2 185/2/2 191/2/2
f 191/2/2 185/2/2 192/2/2
f 188/2/2 189/2/2 193/2/2
f 193/2/2 189/2/2 194/2/2
f 190/2/2 191/2/2 195/2/2
f 195/2/2 191/2/2 196/2/2
f 194/2/2 195/2/2 197/2/2
f 197/2/2 195/2/2 198/2/2
f 199/2/2 200/2/2 203/2/2
f 201/2/2 202/2/2 204/2/2
f 199/2/2 203/2/2 205/2/2
f 205/2/2 203/2/2 206/2/2
f 204/2/2 202/2/2 209/2/2
f 209/2/2 202/2/2 210/2/2
f 206/2/2 207/2/2 211/2/2
f 211/2/2 207/2/2 212/2/2
f 208/2/2 209/2/2 215/2/2
f 215/2/2 209/2/2 216/2/2
f 212/2/2 213/2/2 217/2/2
f 217/2/2 213/2/2 218/2/2
f 214/2/2 215/2/2 219/2/2
f 219/2/2 215/2/2 220/2/2
f 218/2/2 219/2/2 221/2/2
f 221/2/2 219/2/2 222/2/2
f 223/2/2 224/2/2 225/2/2
f 225/2/2 224/2/2 226/2/2
f 226/2/2 224/2/2 227/2/2
f 227/2/2 224/2/2 228/2/2
f 228/2/2 224/2/2 229/2/2
f 229/2/2 224/2/2 230/2/2
f 226/2/2 227/2/2 231/2/2
f 231/2/2 227/2/2 232/2/2
f 228/2/2 229/2/2 233/2/2
f 233/2/2 229/2/2 234/2/2
f 235/2/2 236/2/2 237/2/2
f 237/2/2 236/2/2 238/2/2
f 239/2/2 240/2/2 241/2/2
f 241/2/2 240/2/2 242/2/2
f 243/2/2 244/2/2 247/2/2
f 247/2/2 244/2/2 248/2/2
f 245/2/2 246/2/2 249/2/2
f 249/2/2 246/2/2 250/2/2
f 248/2/2 249/2/2 251/2/2
f 251/2/2 249/2/2 252/2/2
f 253/2/2 254/2/2 255/2/2
f 255/2/2 254/2/2 256/2/2
f 259/2/3 258/2/3 257/2/3
f 260/2/3 258/2/3 259/2/3
f 263/2/3 262/2/3 261/2/3
f 264/2/3 262/2/3 263/2/3
f 267/2/3 266/2/3 265/2/3
f 268/2/3 266/2/3 267/2/3
f 271/2/3 270/2/3 269/2/3
f 272/2/3 270/2/3 271/2/3
f 274/2/3 273/2/3 272/2/3
f 275/2/3 273/2/3 274/2/3
f 278/2/3 277/2/3 276/2/3
f 280/2/3 278/2/3 276/2/3
f 280/2/3 279/2/3 278/2/3
f 281/2/3 279/2/3 280/2/3
f 283/2/3 279/2/3 281/2/3
f 284/2/3 279/2/3 283/2/3
f 284/2/3 283/2/3 282/2/3
f 285/2/3 279/2/3 284/2/3
f 286/2/3 284/2/3 282/2/3
f 287/2/3 284/2/3 286/2/3
f 290/2/3 289/2/3 288/2/3
f 291/2/3 289/2/3 290/2/3
f 294/2/3 292/2/3 291/2/3
f 295/2/3 292/2/3 294/2/3
f 296/2/3 294/2/3 293/2/3
f 297/2/3 294/2/3 296/2/3
f 300/2/3 299/2/3 298/2/3
f 301/2/3 299/2/3 300/2/3
f 303/1/3 302/1/3 301/1/3
f 304/1/3 302/1/3 303/1/3
f 307/2/3 305/2/3 304/2/3
f 308/2/3 305/2/3 307/2/3
f 310/2/3 307/2/3 306/2/3
f 311/2/3 307/2/3 310/2/3
f 312/2/3 310/2/3 309/2/3
f 313/2/3 310/2/3 312/2/3
f 316/2/3 315/2/3 314/2/3
f 317/2/3 315/2/3 316/2/3
f 319/2/3 318/2/3 317/2/3
f 320/2/3 318/2/3 319/2/3
f 323/2/3 322/2/3 321/2/3
f 324/2/3 322/2/3 323/2/3
f 326/1/3 325/1/3 324/1/3
f 327/1/3 325/1/3 326/1/3
f 329/1/3 328/1/3 327/1/3
f 330/1/3 328/1/3 329/1/3
f 334/2/3 332/2/3 331/2/3
f 335/2/3 332/2/3 334/2/3
f 337/2/3 334/2/3 333/2/3
f 338/2/3 334/2/3 337/2/3
f 339/2/3 337/2/3 336/2/3
f 340/2/3 337/2/3 339/2/3
f 344/2/3 342/2/3 341/2/3
f 345/2/3 342/2/3 344/2/3
f 346/2/3 344/2/3 343/2/3
f 347/2/3 344/2/3 346/2/3
f 348/2/3 344/2/3 347/2/3
f 349/1/3 348/1/3 347/1/3
f 350/1/3 348/1/3 349/1/3
f 352/1/3 351/1/3 350/1/3
f 353/1/3 351/1/3 352/1/3
f 356/1/3 355/1/3 354/1/3
f 357/1/3 355/1/3 356/1/3
f 361/2/3 359/2/3 358/2/3
f 362/2/3 359/2/3 361/2/3
f 364/2/3 361/2/3 360/2/3
f 365/2/3 361/2/3 364/2/3
f 367/2/3 364/2/3 363/2/3
f 368/2/3 364/2/3 367/2/3
f 370/2/3 367/2/3 366/2/3
f 370/2/3 369/2/3 368/2/3
f 370/2/3 368/2/3 367/2/3
f 371/2/3 369/2/3 370/2/3
f 372/2/3 369/2/3 371/2/3
f 373/2/3 369/2/3 372/2/3
f 374/2/3 372/2/3 371/2/3
f 375/2/3 372/2/3 374/2/3
f 378/2/3 377/2/3 376/2/3
f 379/2/3 377/2/3 378/2/3
f 382/2/3 381/2/3 380/2/3
f 383/2/3 381/2/3 382/2/3
f 386/2/3 385/2/3 384/2/3
f 387/2/3 385/2/3 386/2/3
f 388/2/4 389/2/4 390/2/4
f 390/2/4 389/2/4 391/2/4
f 392/2/4 393/2/4 394/2/4
f 394/2/4 393/2/4 395/2/4
f 396/2/4 397/2/4 398/2/4
f 398/2/4 397/2/4 399/2/4
f 400/2/4 401/2/4 403/2/4
f 403/2/4 401/2/4 404/2/4
f 402/2/4 403/2/4 405/2/4
f 405/2/4 403/2/4 406/2/4
f 406/2/4 403/2/4 407/2/4
f 406/1/4 407/1/4 408/1/4
f 408/1/4 407/1/4 409/1/4
f 409/1/4 410/1/4 411/1/4
f 411/1/4 410/1/4 412/1/4
f 413/1/4 414/1/4 415/1/4
f 415/1/4 414/1/4 416/1/4
f 417/2/4 418/2/4 420/2/4
f 420/2/4 418/2/4 421/2/4
f 419/2/4 420/2/4 423/2/4
f 423/2/4 420/2/4 424/2/4
f 422/2/4 423/2/4 426/2/4
f 426/2/4 423/2/4 427/2/4
f 425/2/4 426/2/4 429/2/4
f 427/2/4 428/2/4 429/2/4
f 426/2/4 427/2/4 429/2/4
f 429/2/4 428/2/4 430/2/4
f 430/2/4 428/2/4 431/2/4
f 431/2/4 428/2/4 432/2/4
f 430/2/4 431/2/4 433/2/4
f 433/2/4 431/2/4 434/2/4
f 435/2/4 436/2/4 437/2/4
f 437/2/4 436/2/4 438/2/4
f 438/2/4 439/2/4 440/2/4
f 440/2/4 439/2/4 441/2/4
f 442/2/4 443/2/4 444/2/4
f 444/2/4 443/2/4 445/2/4
f 445/1/4 446/1/4 447/1/4
f 447/1/4 446/1/4 448/1/4
f 448/1/4 449/1/4 450/1/4
f 450/1/4 449/1/4 451/1/4
f 452/2/4 453/2/4 455/2/4
f 455/2/4 453/2/4 456/2/4
f 454/2/4 455/2/4 458/2/4
f 458/2/4 455/2/4 459/2/4
f 457/2/4 458/2/4 460/2/4
f 460/2/4 458/2/4 461/2/4
f 462/2/4 463/2/4 464/2/4
f 464/2/4 463/2/4 465/2/4
f 465/1/4 466/1/4 467/1/4
f 467/1/4 466/1/4 468/1/4
f 468/2/4 469/2/4 471/2/4
f 471/2/4 469/2/4 472/2/4
f 470/2/4 471/2/4 474/2/4
f 474/2/4 471/2/4 475/2/4
f 473/2/4 474/2/4 476/2/4
f 476/2/4 474/2/4 477/2/4
f 478/2/4 479/2/4 480/2/4
f 480/2/4 479/2/4 481/2/4
f 481/2/4 482/2/4 483/2/4
f 483/2/4 482/2/4 484/2/4
f 485/2/4 486/2/4 487/2/4
f 485/2/4 487/2/4 489/2/4
f 487/2/4 488/2/4 489/2/4
f 489/2/4 488/2/4 490/2/4
f 490/2/4 488/2/4 492/2/4
f 492/2/4 488/2/4 493/2/4
f 491/2/4 492/2/4 493/2/4
f 493/2/4 488/2/4 494/2/4
f 491/2/4 493/2/4 495/2/4
f 495/2/4 493/2/4 496/2/4
f 497/2/4 498/2/4 499/2/4
f 499/2/4 498/2/4 500/2/4
f 500/2/4 501/2/4 503/2/4
f 503/2/4 501/2/4 504/2/4
f 502/2/4 503/2/4 505/2/4
f 505/2/4 503/2/4 506/2/4
f 507/2/4 508/2/4 509/2/4
f 509/2/4 508/2/4 510/2/4
f 511/2/4 512/2/4 513/2/4
f 513/2/4 512/2/4 514/2/4
f 515/2/4 516/2/4 517/2/4
f 517/2/4 516/2/4 518/2/4
f 523/2/5 520/2/5 519/2/5
f 524/2/5 520/2/5 523/2/5
f 525/2/5 522/2/5 521/2/5
f 526/2/5 522/2/5 525/2/5
f 531/2/5 528/2/5 527/2/5
f 532/2/5 528/2/5 531/2/5
f 533/2/5 530/2/5 529/2/5
f 534/2/5 530/2/5 533/2/5
f 538/2/5 536/2/5 535/2/5
f 539/2/5 536/2/5 538/2/5
f 540/2/5 536/2/5 539/2/5
f 545/2/5 542/2/5 541/2/5
f 546/2/5 542/2/5 545/2/5
f 550/2/5 538/2/5 537/2/5
f 550/2/5 539/2/5 538/2/5
f 552/2/5 548/2/5 547/2/5
f 552/2/5 547/2/5 546/2/5
f 552/2/5 544/2/5 543/2/5
f 552/2/5 545/2/5 544/2/5
f 552/2/5 546/2/5 545/2/5
f 553/2/5 550/2/5 549/2/5
f 553/2/5 539/2/5 550/2/5
f 554/2/5 552/2/5 551/2/5
f 555/2/5 553/2/5 549/2/5
f 555/2/5 554/2/5 553/2/5
f 556/2/5 552/2/5 554/2/5
f 556/2/5 554/2/5 555/2/5
f 557/2/5 555/2/5 549/2/5
f 558/2/5 555/2/5 557/2/5
f 559/2/5 552/2/5 556/2/5
f 560/2/5 548/2/5 552/2/5
f 560/2/5 552/2/5 559/2/5
f 561/2/5 548/2/5 560/2/5
f 562/2/5 548/2/5 561/2/5
f 563/2/5 548/2/5 562/2/5
f 564/2/5 548/2/5 563/2/5
f 565/2/5 548/2/5 564/2/5
f 566/2/5 548/2/5 565/2/5
f 567/2/5 555/2/5 558/2/5
f 568/2/5 555/2/5 567/2/5
f 569/2/5 555/2/5 568/2/5
f 571/2/5 564/2/5 563/2/5
f 572/2/5 564/2/5 571/2/5
f 573/2/5 570/2/5 569/2/5
f 573/2/5 569/2/5 568/2/5
f 574/2/5 570/2/5 573/2/5
f 577/2/5 576/2/5 575/2/5
f 578/2/5 576/2/5 577/2/5
f 581/2/5 580/2/5 579/2/5
f 582/2/5 580/2/5 581/2/5
f 586/2/5 584/2/5 583/2/5
f 587/2/5 584/2/5 586/2/5
f 589/2/5 586/2/5 585/2/5
f 589/2/5 588/2/5 587/2/5
f 589/2/5 587/2/5 586/2/5
f 590/2/5 588/2/5 589/2/5
f 592/2/5 588/2/5 590/2/5
f 593/2/5 592/2/5 591/2/5
f 594/2/5 588/2/5 592/2/5
f 594/2/5 592/2/5 593/2/5
f 595/2/5 588/2/5 594/2/5
f 596/2/5 588/2/5 595/2/5
f 597/2/5 595/2/5 594/2/5
f 598/2/5 595/2/5 597/2/5
f 599/2/6 600/2/6 601/2/6
f 601/2/6 600/2/6 602/2/6
f 599/2/6 601/2/6 604/2/6
f 604/2/6 601/2/6 605/2/6
f 606/2/6 607/2/6 611/2/6
f 611/2/6 607/2/6 612/2/6
f 608/2/6 609/2/6 613/2/6
f 613/2/6 609/2/6 614/2/6
f 603/2/6 604/2/6 617/2/6
f 617/2/6 604/2/6 618/2/6
f 610/2/6 611/2/6 620/2/6
f 620/2/6 611/2/6 621/2/6
f 614/2/6 615/2/6 622/2/6
f 622/2/6 615/2/6 623/2/6
f 619/2/6 620/2/6 624/2/6
f 624/2/6 620/2/6 625/2/6
f 616/2/6 617/2/6 628/2/6
f 628/2/6 617/2/6 629/2/6
f 626/2/6 627/2/6 631/2/6
f 631/2/6 627/2/6 632/2/6
f 632/2/6 633/2/6 636/2/6
f 636/2/6 633/2/6 637/2/6
f 634/2/6 635/2/6 640/2/6
f 640/2/6 635/2/6 641/2/6
f 629/2/6 630/2/6 642/2/6
f 642/2/6 630/2/6 643/2/6
f 637/2/6 638/2/6 645/2/6
f 645/2/6 638/2/6 646/2/6
f 639/2/6 640/2/6 647/2/6
f 647/2/6 640/2/6 648/2/6
f 643/2/6 644/2/6 649/2/6
f 643/2/6 649/2/6 651/2/6
f 649/2/6 650/2/6 651/2/6
f 651/2/6 650/2/6 652/2/6
f 653/2/6 654/2/6 656/2/6
f 656/2/6 654/2/6 657/2/6
f 658/2/6 659/2/6 661/2/6
f 661/2/6 659/2/6 662/2/6
f 655/2/6 656/2/6 665/2/6
f 660/1/6 661/1/6 667/1/6
f 667/1/6 661/1/6 668/1/6
f 662/2/6 663/2/6 669/2/6
f 669/2/6 663/2/6 670/2/6
f 664/2/6 665/2/6 672/2/6
f 665/2/6 656/2/6 672/2/6
f 672/2/6 656/2/6 673/2/6
f 666/1/6 667/1/6 675/1/6
f 675/1/6 667/1/6 676/1/6
f 670/2/6 671/2/6 677/2/6
f 677/2/6 671/2/6 678/2/6
f 664/2/6 672/2/6 679/2/6
f 673/2/6 674/2/6 680/2/6
f 674/1/6 675/1/6 681/1/6
f 680/2/6 674/2/6 681/2/6
f 681/1/6 675/1/6 682/1/6
f 664/2/6 679/2/6 686/2/6
f 679/2/6 680/2/6 686/2/6
f 686/2/6 680/2/6 687/2/6
f 682/1/6 683/1/6 688/1/6
f 688/1/6 683/1/6 689/1/6
f 684/2/6 685/2/6 692/2/6
f 692/2/6 685/2/6 693/2/6
f 689/1/6 690/1/6 694/1/6
f 694/1/6 690/1/6 695/1/6
f 691/2/6 692/2/6 696/2/6
f 696/2/6 692/2/6 697/2/6
f 687/2/6 680/2/6 698/2/6
f 698/2/6 680/2/6 699/2/6
f 695/2/6 696/2/6 701/2/6
f 701/2/6 696/2/6 702/2/6
f 699/2/6 700/2/6 703/2/6
f 703/2/6 700/2/6 704/2/6
f 705/2/6 706/2/6 708/2/6
f 708/2/6 706/2/6 709/2/6
f 709/2/6 706/2/6 710/2/6
f 707/1/6 708/1/6 715/1/6
f 708/1/6 709/1/6 715/1/6
f 715/1/6 709/1/6 716/1/6
f 716/1/6 709/1/6 717/1/6
f 710/2/6 711/2/6 718/2/6
f 718/2/6 711/2/6 719/2/6
f 712/2/6 713/2/6 721/2/6
f 721/2/6 713/2/6 722/2/6
f 714/1/6 715/1/6 723/1/6
f 715/1/6 716/1/6 723/1/6
f 723/1/6 716/1/6 724/1/6
f 724/1/6 716/1/6 725/1/6
f 719/2/6 720/2/6 728/2/6
f 728/2/6 720/2/6 729/2/6
f 725/1/6 726/1/6 730/1/6
f 724/1/6 725/1/6 730/1/6
f 730/1/6 726/1/6 731/1/6
f 731/1/6 726/1/6 732/1/6
f 727/2/6 728/2/6 733/2/6
f 733/2/6 728/2/6 734/2/6
f 731/2/6 732/2/6 735/2/6
f 732/2/6 733/2/6 735/2/6
f 735/2/6 733/2/6 736/2/6
f 737/2/6 738/2/6 740/2/6
f 740/2/6 738/2/6 741/2/6
f 743/2/6 744/2/6 746/2/6
f 746/2/6 744/2/6 747/2/6
f 747/2/6 744/2/6 748/2/6
f 739/2/6 740/2/6 751/2/6
f 745/1/6 746/1/6 752/1/6
f 746/2/6 747/2/6 753/2/6
f 752/1/6 746/1/6 753/1/6
f 753/2/6 747/2/6 754/2/6
f 748/2/6 749/2/6 755/2/6
f 755/2/6 749/2/6 756/2/6
f 750/2/6 751/2/6 757/2/6
f 751/2/6 740/2/6 758/2/6
f 757/2/6 751/2/6 758/2/6
f 753/2/6 754/2/6 759/2/6
f 754/2/6 755/2/6 759/2/6
f 759/2/6 755/2/6 760/2/6
f 758/2/6 740/2/6 761/2/6
f 761/2/6 740/2/6 762/2/6
f 741/2/6 742/2/6 763/2/6
f 763/2/6 742/2/6 764/2/6
f 762/2/6 763/2/6 765/2/6
f 765/2/6 763/2/6 766/2/6
f 769/2/6 770/2/6 771/2/6
f 771/2/6 770/2/6 772/2/6
f 767/2/6 768/2/6 773/2/6
f 773/2/6 768/2/6 774/2/6
